<?xml version="1.0" standalone="no"?>
<!DOCTYPE svg PUBLIC "-//W3C//DTD SVG 20010904//EN"
 "http://www.w3.org/TR/2001/REC-SVG-20010904/DTD/svg10.dtd">
<svg version="1.0" xmlns="http://www.w3.org/2000/svg"
 width="1024.000000pt" height="1024.000000pt" viewBox="0 0 1024.000000 1024.000000"
 preserveAspectRatio="xMidYMid meet">
<metadata>
Created by potrace 1.16, written by Peter Selinger 2001-2019
</metadata>
<g transform="translate(0.000000,1024.000000) scale(0.100000,-0.100000)"
fill="#000000" stroke="none">
<path d="M0 5120 l0 -5120 5120 0 5120 0 0 5120 0 5120 -5120 0 -5120 0 0
-5120z m4474 1448 c3 -13 6 -148 6 -300 l0 -278 381 0 c209 0 379 -4 377 -9
-1 -4 -31 -32 -66 -61 -126 -104 -198 -230 -237 -412 l-5 -28 -230 0 -230 0 0
-132 c1 -221 13 -320 50 -394 48 -99 130 -152 265 -174 38 -6 73 -16 77 -23 4
-7 8 -39 8 -72 1 -142 55 -270 156 -364 75 -70 78 -68 -106 -77 -219 -11 -375
18 -548 102 -190 94 -321 239 -392 433 -48 131 -60 226 -60 477 l0 223 -117 3
-117 3 -12 65 c-30 157 -97 280 -213 387 l-56 53 258 0 257 0 0 300 0 300 274
0 274 0 6 -22z m1509 -529 c178 -27 357 -93 468 -175 l49 -36 -45 -61 c-25
-34 -83 -117 -130 -184 l-86 -122 -44 30 c-102 69 -270 114 -405 107 -94 -4
-133 -26 -138 -78 -7 -63 42 -92 286 -166 411 -124 519 -203 568 -411 12 -50
15 -98 11 -183 -5 -128 -29 -209 -86 -299 -45 -69 -150 -165 -221 -201 -231
-117 -699 -100 -974 36 -78 38 -164 97 -172 118 -3 8 52 98 121 200 l127 187
31 -21 c121 -81 291 -137 442 -146 105 -7 157 7 188 48 17 23 19 34 11 65 -13
52 -53 76 -208 124 -324 99 -440 152 -532 244 -45 44 -67 75 -83 120 -30 81
-43 201 -31 300 34 300 206 470 515 508 68 9 271 6 338 -4z m-2843 -40 c221
-56 360 -188 417 -400 24 -89 24 -299 -1 -389 -47 -175 -157 -317 -288 -375
-37 -17 -68 -34 -68 -38 0 -4 77 -130 170 -279 94 -150 167 -275 162 -280 -4
-4 -150 -5 -324 -1 l-315 6 -25 41 c-14 23 -91 144 -172 270 l-146 228 0 182
0 181 128 1 c137 1 191 11 242 46 49 34 70 67 77 126 18 156 -94 221 -379 222
-70 0 -139 -5 -154 -10 l-27 -11 7 -639 7 -640 -290 0 -291 0 0 875 0 875 280
0 280 0 2 -62 c0 -35 1 -69 1 -75 -1 -7 0 -13 1 -13 1 0 25 22 54 50 80 77
164 113 302 130 91 11 261 1 350 -21z m4655 -14 c93 -25 233 -98 306 -158 84
-70 151 -159 204 -272 69 -146 80 -203 80 -405 0 -152 -3 -185 -23 -253 -77
-268 -237 -470 -454 -572 -118 -56 -186 -70 -333 -70 -157 0 -240 22 -337 89
l-63 43 3 -369 4 -368 -286 0 -286 0 0 1170 0 1170 285 0 285 0 0 -76 0 -77
50 47 c54 51 150 101 221 116 64 13 274 4 344 -15z"/>
<path d="M7213 5529 l-33 -10 0 -358 0 -359 43 -21 c66 -32 142 -44 247 -39
81 4 105 10 161 36 154 74 238 244 209 425 -14 91 -41 148 -97 208 -88 94
-192 129 -378 128 -66 0 -135 -5 -152 -10z"/>
</g>
</svg>
